<?xml version="1.0" encoding="UTF-8" standalone="no"?>
<!-- Created with Inkscape (http://www.inkscape.org/) -->

<svg
   xmlns:dc="http://purl.org/dc/elements/1.1/"
   xmlns:cc="http://creativecommons.org/ns#"
   xmlns:rdf="http://www.w3.org/1999/02/22-rdf-syntax-ns#"
   xmlns:svg="http://www.w3.org/2000/svg"
   xmlns="http://www.w3.org/2000/svg"
   xmlns:sodipodi="http://sodipodi.sourceforge.net/DTD/sodipodi-0.dtd"
   xmlns:inkscape="http://www.inkscape.org/namespaces/inkscape"
   width="297mm"
   height="210mm"
   viewBox="0 0 297 210"
   version="1.1"
   id="svg8"
   inkscape:version="0.92.3 (2405546, 2018-03-11)"
   sodipodi:docname="inducedSuicide.svg">
  <defs
     id="defs2" />
  <sodipodi:namedview
     id="base"
     pagecolor="#ffffff"
     bordercolor="#666666"
     borderopacity="1.0"
     inkscape:pageopacity="0.0"
     inkscape:pageshadow="2"
     inkscape:zoom="0.7"
     inkscape:cx="250.69975"
     inkscape:cy="449.37817"
     inkscape:document-units="mm"
     inkscape:current-layer="layer1"
     showgrid="false"
     inkscape:window-width="1920"
     inkscape:window-height="1001"
     inkscape:window-x="-9"
     inkscape:window-y="-9"
     inkscape:window-maximized="1" />
  <metadata
     id="metadata5">
    <rdf:RDF>
      <cc:Work
         rdf:about="">
        <dc:format>image/svg+xml</dc:format>
        <dc:type
           rdf:resource="http://purl.org/dc/dcmitype/StillImage" />
        <dc:title />
      </cc:Work>
    </rdf:RDF>
  </metadata>
  <g
     inkscape:label="Ebene 1"
     inkscape:groupmode="layer"
     id="layer1"
     transform="translate(0,-87)">
    <text
       xml:space="preserve"
       style="font-style:normal;font-weight:normal;font-size:43.57402039px;line-height:1.25;font-family:sans-serif;letter-spacing:0px;word-spacing:0px;fill:#000000;fill-opacity:1;stroke:none;stroke-width:1.08935046"
       x="68.506866"
       y="203.08771"
       id="text3715"><tspan
         sodipodi:role="line"
         id="tspan3713"
         x="68.506866"
         y="203.08771"
         style="stroke-width:1.08935046">Suicide</tspan></text>
    <path
       style="fill:none;stroke:#ff0000;stroke-width:4;stroke-linecap:butt;stroke-linejoin:miter;stroke-miterlimit:4;stroke-dasharray:none;stroke-opacity:1"
       d="m 241.38678,186.63095 c -4.75424,-3.80339 -0.60564,-0.0516 -2.26786,-2.26786 -0.42188,-0.5625 -1.29478,-1.21435 -1.88988,-1.5119 -0.35636,-0.17818 -0.83142,-0.11869 -1.13393,-0.37798 -0.61252,-0.52502 -0.89215,-1.37341 -1.5119,-1.88988 -0.19358,-0.16131 -0.53058,0.11269 -0.75596,0 -0.56345,-0.28173 -1.01999,-0.74039 -1.5119,-1.13393 -0.13914,-0.1113 -0.21254,-0.3118 -0.37798,-0.37797 -0.48232,-0.19293 -1.02958,-0.18505 -1.5119,-0.37798 -0.16544,-0.0662 -0.22519,-0.2863 -0.37798,-0.37797 -0.48316,-0.2899 -0.98875,-0.54669 -1.5119,-0.75596 -0.17554,-0.0702 -2.48102,0 -2.64584,0 -0.12599,0 -0.26528,-0.0563 -0.37797,0 -0.15937,0.0797 -0.21861,0.2983 -0.37798,0.37798 -0.11269,0.0563 -0.27314,-0.0699 -0.37798,0 -0.2965,0.19767 -0.47768,0.53334 -0.75595,0.75595 -0.35472,0.28378 -0.75595,0.50397 -1.13393,0.75595 -0.37797,0.37798 -0.72807,0.78606 -1.13392,1.13393 -0.47831,0.40997 -1.03782,0.7191 -1.51191,1.13393 -0.53637,0.46933 -0.90075,1.14522 -1.5119,1.51191 -0.68329,0.40997 -1.55514,0.39959 -2.26786,0.75595 -1.06312,0.53156 -2.01153,1.26693 -3.02381,1.88988 -0.62567,0.38503 -1.2669,0.74456 -1.88988,1.13393 -0.38522,0.24076 -0.7444,0.52223 -1.13393,0.75595 -0.96029,0.57617 -2.02141,1.01071 -3.02381,1.5119 -0.50397,0.25199 -1.02875,0.46606 -1.5119,0.75596 -0.82333,0.49399 0.17057,0.42982 -1.13393,0.75595 -0.24446,0.0611 -0.50397,0 -0.75596,0 -0.50396,0.12599 -1.01908,0.2137 -1.5119,0.37798 -1.13393,0.37797 -0.75595,0.75595 -2.26786,1.13392 -0.48892,0.12224 -1.00793,0 -1.5119,0 -0.50397,0 -1.00794,0 -1.51191,0 -1.63789,0 -3.27579,0 -4.91369,0 -2.51983,0 -5.03967,0 -7.55952,0 -0.62995,0 -1.25991,0 -1.88988,0 -0.25198,0 -0.50591,0.0313 -0.75595,0 -0.76046,-0.0951 -1.50342,-0.32337 -2.26786,-0.37797 -1.00537,-0.0718 -2.01884,0.0773 -3.02381,0 -3.51763,-0.27059 -0.26413,-0.45001 -4.15773,-1.51191 -0.60777,-0.16575 -1.26251,0.057 -1.88988,0 -5.58841,-0.50803 0.37909,-0.16183 -3.77977,-0.75595 -0.37417,-0.0534 -0.75975,0.0535 -1.13392,0 -3.28793,-0.4697 0.0466,-0.21746 -2.64584,-0.75595 -0.24709,-0.0494 -0.50397,0 -0.75595,0 -0.37798,-0.12599 -0.7474,-0.28135 -1.13393,-0.37798 -0.12223,-0.0306 -0.25198,0 -0.37798,0 -0.37797,0 -0.75595,0 -1.13392,0 -0.25199,0 -0.51149,0.0611 -0.75596,0 -0.27331,-0.0683 -0.48868,-0.28889 -0.75595,-0.37797 -0.21325,-0.0711 -0.88556,0 -1.13393,0 -0.75595,0 -1.5119,0 -2.26785,0 -0.43842,0 -2.76059,-0.0585 -3.02381,0 -0.66233,0.14718 -1.2353,0.57743 -1.88988,0.75595 -0.73938,0.20165 -1.52111,0.20565 -2.26786,0.37797 -7.7089,1.77898 1.46843,-0.20356 -4.53572,1.51191 -1.11689,0.31911 -2.26994,0.49476 -3.40178,0.75595 -0.50618,0.11681 -1.0048,0.26529 -1.51191,0.37798 -0.62713,0.13936 -1.27453,0.19337 -1.88988,0.37797 -0.64987,0.19497 -1.23749,0.56956 -1.88988,0.75596 -0.24229,0.0692 -0.53057,-0.11269 -0.75595,0 -0.11269,0.0563 0.0891,0.28888 0,0.37797 -0.0891,0.0891 -0.25198,0 -0.37798,0 -0.37797,0 -0.75595,0 -1.13393,0 -3.0238,0 -6.04761,0 -9.07142,0 -4.91369,0 -9.82738,0 -14.74108,0 -2.14186,0 -4.28373,0 -6.42559,0 -0.62996,0 -1.26251,0.057 -1.88988,0 -0.763227,-0.0694 -1.504627,-0.30859 -2.267857,-0.37797 -0.62737,-0.057 -1.25992,0 -1.88988,0 -0.26458,0 -3.1372,0 -3.40178,0 -0.37798,0 -0.75596,0 -1.13393,0 -0.25199,0 -0.51149,0.0611 -0.75596,0 -0.38652,-0.0966 -0.73951,-0.32163 -1.13392,-0.37798 -0.49891,-0.0713 -1.00794,0 -1.51191,0 -0.12599,0 -0.25574,0.0306 -0.37798,0 -0.38652,-0.0966 -0.74324,-0.29984 -1.13392,-0.37798 -0.24709,-0.0494 -0.50397,0 -0.75595,0 -0.62997,0 -1.25993,0 -1.88989,0 -0.25198,0 -0.51149,0.0611 -0.75595,0 -0.38653,-0.0966 -0.7474,-0.28134 -1.13393,-0.37797 -0.12223,-0.0306 -0.25198,0 -0.37797,0 -0.62996,0 -1.25993,0 -1.88989,0 -0.50396,0 -1.01993,0.10932 -1.5119,0 -5.1121,-1.13602 1.92662,-0.5954 -4.53571,-1.13393 -0.62779,-0.0523 -1.25993,0 -1.88989,0 -0.75595,0 -1.5119,0 -2.26785,0 -2.39385,0 -4.7877,0 -7.18155,0 -1.13393,0 -2.26786,0 -3.40179,0 -0.261,0 -1.39698,0.0575 -1.5119,0 -0.15937,-0.0797 -0.21861,-0.29829 -0.37798,-0.37798 -0.16819,-0.0841 -1.33902,0.0576 -1.5119,0 -0.95911,-0.3197 -1.81634,-0.95891 -2.64583,-1.5119"
       id="path3717"
       inkscape:connector-curvature="0" />
    <text
       xml:space="preserve"
       style="font-style:normal;font-weight:normal;font-size:10.58333302px;line-height:1.25;font-family:sans-serif;letter-spacing:0px;word-spacing:0px;fill:#000000;fill-opacity:1;stroke:none;stroke-width:0.26458332"
       x="76.351196"
       y="123.8869"
       id="text825"><tspan
         sodipodi:role="line"
         id="tspan823"
         x="76.351196"
         y="123.8869"
         style="stroke-width:0.26458332;-inkscape-font-specification:sans-serif;font-family:sans-serif;font-weight:normal;font-style:normal;font-stretch:normal;font-variant:normal">induced Suicid</tspan></text>
  </g>
</svg>
