<?xml version="1.0" encoding="utf-8"?>
<!-- Generator: Adobe Illustrator 16.0.4, SVG Export Plug-In . SVG Version: 6.00 Build 0)  -->
<!DOCTYPE svg PUBLIC "-//W3C//DTD SVG 1.1//EN" "http://www.w3.org/Graphics/SVG/1.1/DTD/svg11.dtd">
<svg version="1.1" id="Ebene_1" xmlns="http://www.w3.org/2000/svg" xmlns:xlink="http://www.w3.org/1999/xlink" x="0px" y="0px"
	 width="640px" height="117px" viewBox="0 0 640 117" enable-background="new 0 0 640 117" xml:space="preserve">
<rect x="0" y="0" fill="#AF001D" width="178.157" height="117"/>
<path fill="#FFFFFF" d="M21.646,77.338l-1.034,6.64c-0.173,1.295,0.429,1.808,1.547,1.98c2.505,0.348,8.798,0.778,14.914,0.778
	c13.715,0,23.717-4.484,23.717-17.243c0-7.504-3.278-13.102-14.661-16.035l-6.378-1.639c-4.306-1.12-6.295-2.499-6.295-5.692
	c0-4.482,4.139-5.344,8.1-5.344c5.358,0,10.781,0.432,12.936,0.605c2.248,0.173,2.849-0.083,3.192-1.983l1.038-6.465
	c0.169-1.296-0.435-1.809-1.556-1.98c-2.499-0.35-8.018-0.779-15.003-0.779c-14.226,0-21.121,6.206-21.121,16.036
	c0,8.879,4.829,14.141,13.188,16.293l6.386,1.64c5.256,1.379,7.5,2.926,7.5,6.207c0,4.83-3.276,5.689-11.214,5.689
	c-3.617,0-9.904-0.52-12.062-0.689C22.594,75.185,21.991,75.44,21.646,77.338"/>
<path fill="#FFFFFF" d="M153.212,30.784c1.723,0,2.238,0.602,2.238,2.327v50.78c0,1.725-0.516,2.327-2.238,2.327h-7.936
	c-1.722,0-2.241-0.604-2.241-2.327v-50.78c0-1.725,0.52-2.327,2.241-2.327H153.212z"/>
<path fill="#FFFFFF" d="M80.677,86.224c-1.319,0-2.668-1.05-2.991-2.333l-12.77-50.755c-0.322-1.283,0.5-2.333,1.823-2.333h9.206
	c1.328,0,2.607,1.066,2.838,2.371l6.783,35.613l8.656-35.638c0.298-1.291,1.631-2.346,2.952-2.346h7.148
	c1.323,0,2.654,1.054,2.961,2.343l8.728,35.641l6.708-35.613c0.23-1.304,1.507-2.371,2.833-2.371h8.631
	c1.321,0,2.138,1.048,1.816,2.333l-12.924,50.757c-0.323,1.281-1.676,2.331-3,2.331h-8.293c-1.333,0-2.655-1.058-2.955-2.348
	l-8.452-35.34L91.768,83.88c-0.301,1.286-1.629,2.344-2.953,2.344H80.677L80.677,86.224z"/>
<path fill="#333333" d="M214.807,87.057c-3.754,0-6.962-0.223-9.628-0.666c-2.661-0.442-4.488-0.795-5.477-1.057l1.25-8.534
	c5.479,0.891,9.656,1.333,12.524,1.333c2.454,0,4.305-0.221,5.557-0.666c1.252-0.443,1.882-1.367,1.882-2.779
	c0-1.201-0.393-2.049-1.178-2.545c-0.781-0.494-2.166-0.95-4.146-1.367l-4.54-0.941c-3.603-0.729-6.255-2.033-7.948-3.914
	c-1.695-1.876-2.542-4.618-2.542-8.216c0-3.759,1.275-6.774,3.833-9.042c2.556-2.271,6.732-3.408,12.525-3.408
	c2.295,0,4.45,0.156,6.458,0.471c2.008,0.315,3.601,0.599,4.774,0.863c1.172,0.26,1.946,0.416,2.306,0.467l-1.561,8.455
	c-5.323-0.885-9.029-1.33-11.117-1.33c-1.881,0-3.402,0.198-4.579,0.588c-1.175,0.389-1.763,1.266-1.763,2.622
	c0,1.043,0.301,1.788,0.903,2.228c0.599,0.445,1.709,0.822,3.327,1.137l4.929,1.019c3.336,0.731,5.82,1.721,7.438,2.976
	c1.618,1.252,2.671,2.727,3.171,4.422c0.494,1.693,0.742,3.354,0.742,4.97c0,4.591-1.537,7.895-4.617,9.901
	C224.253,86.052,220.077,87.057,214.807,87.057"/>
<polygon fill="#333333" points="246.431,86.116 235.316,46.197 247.606,46.197 252.776,72.495 260.134,46.197 269.679,46.197 
	276.642,72.495 281.576,46.197 293.476,46.197 282.518,86.116 271.323,86.116 264.201,60.754 257.548,86.116 "/>
<path fill="#333333" d="M298.095,29.366h11.429v10.721h-11.429V29.366z M298.173,46.196h11.273v39.923h-11.273V46.196z"/>
<path fill="#333333" d="M330.814,87.057c-3.753,0-6.963-0.223-9.628-0.666c-2.66-0.442-4.489-0.795-5.478-1.057l1.25-8.534
	c5.479,0.891,9.655,1.333,12.525,1.333c2.453,0,4.306-0.221,5.558-0.666c1.251-0.443,1.882-1.367,1.882-2.779
	c0-1.201-0.395-2.049-1.179-2.545c-0.78-0.494-2.165-0.95-4.146-1.367l-4.538-0.941c-3.604-0.729-6.257-2.033-7.949-3.914
	c-1.696-1.876-2.542-4.618-2.542-8.216c0-3.759,1.275-6.774,3.835-9.042c2.556-2.271,6.73-3.408,12.523-3.408
	c2.296,0,4.452,0.156,6.459,0.471c2.007,0.315,3.602,0.599,4.775,0.863c1.172,0.26,1.945,0.416,2.307,0.467l-1.562,8.455
	c-5.324-0.885-9.028-1.33-11.116-1.33c-1.882,0-3.404,0.198-4.581,0.588c-1.174,0.389-1.763,1.266-1.763,2.622
	c0,1.043,0.301,1.788,0.904,2.228c0.598,0.445,1.708,0.822,3.324,1.137l4.929,1.019c3.338,0.731,5.82,1.721,7.439,2.976
	c1.616,1.252,2.671,2.727,3.17,4.422c0.494,1.693,0.741,3.354,0.741,4.97c0,4.591-1.537,7.895-4.617,9.901
	C340.259,86.052,336.084,87.057,330.814,87.057"/>
<path fill="#333333" d="M367.056,87.057c-3.756,0-6.966-0.223-9.628-0.666c-2.66-0.442-4.488-0.795-5.479-1.057l1.252-8.534
	c5.479,0.891,9.656,1.333,12.528,1.333c2.45,0,4.301-0.221,5.553-0.666c1.253-0.443,1.879-1.367,1.879-2.779
	c0-1.201-0.389-2.049-1.175-2.545c-0.78-0.494-2.165-0.95-4.146-1.367l-4.541-0.941c-3.602-0.729-6.25-2.033-7.945-3.914
	c-1.695-1.876-2.543-4.618-2.543-8.216c0-3.759,1.277-6.774,3.834-9.042c2.559-2.271,6.731-3.408,12.528-3.408
	c2.295,0,4.445,0.156,6.455,0.471c2.01,0.315,3.602,0.599,4.778,0.863c1.171,0.26,1.941,0.416,2.307,0.467l-1.564,8.455
	c-5.321-0.885-9.029-1.33-11.118-1.33c-1.877,0-3.403,0.198-4.579,0.588c-1.175,0.389-1.76,1.266-1.76,2.622
	c0,1.043,0.302,1.788,0.897,2.228c0.603,0.445,1.709,0.822,3.326,1.137l4.935,1.019c3.337,0.731,5.82,1.721,7.438,2.976
	c1.617,1.252,2.67,2.727,3.167,4.422c0.497,1.693,0.745,3.354,0.745,4.97c0,4.591-1.54,7.895-4.62,9.901
	C376.506,86.052,372.327,87.057,367.056,87.057"/>
<path fill="#333333" d="M391.01,29.366h11.429v10.721H391.01V29.366z M391.088,46.196h11.273v39.923h-11.273V46.196z"/>
<path fill="#333333" d="M411.364,86.116v-39.92h9.706l0.393,3.522c0.518-0.314,1.148-0.73,1.881-1.253
	c0.727-0.523,1.592-1.018,2.58-1.487c0.988-0.469,2.098-0.874,3.326-1.215c1.225-0.34,2.57-0.509,4.031-0.509
	c2.871,0,5.338,0.509,7.396,1.53c2.062,1.016,3.523,2.555,4.385,4.616c0.863,2.062,1.293,4.319,1.293,6.769v27.947H435.08V60.596
	c0-3.544-1.617-5.319-4.854-5.319c-1.982,0-3.639,0.3-4.971,0.899c-1.332,0.6-2.201,1.033-2.615,1.291v28.651L411.364,86.116
	L411.364,86.116z"/>
<path fill="#333333" d="M457.625,86.116V55.195h-5.949v-8.999h5.949v-3.837c0-3.757,0.809-6.678,2.428-8.766
	c1.615-2.085,3.572-3.378,5.873-3.875c2.295-0.494,4.432-0.744,6.418-0.744c1.668,0,3.299,0.108,4.891,0.312
	c1.59,0.21,3.092,0.523,4.502,0.943l-1.252,8.218c-1.826-0.417-3.812-0.626-5.949-0.626c-1.674,0-3.027,0.389-4.072,1.174
	c-1.043,0.781-1.566,2.294-1.566,4.541v2.661h11.033v8.999h-11.033v30.921H457.625L457.625,86.116z"/>
<path fill="#333333" d="M501.381,87.057c-4.645,0-8.438-0.874-11.391-2.621c-2.949-1.75-4.971-4.268-6.066-7.555
	c-1.098-3.288-1.645-6.86-1.645-10.725c0-5.686,0.965-10.111,2.896-13.267c1.93-3.158,4.412-5.218,7.434-6.186
	c3.031-0.965,5.953-1.449,8.77-1.449c4.697,0,8.494,0.876,11.389,2.624c2.898,1.749,4.895,4.254,5.988,7.513
	c1.098,3.265,1.646,6.849,1.646,10.764c0,5.636-0.965,10.072-2.9,13.307c-1.928,3.238-4.369,5.311-7.316,6.225
	C507.24,86.601,504.304,87.057,501.381,87.057 M501.304,78.445c2.08,0,3.715-0.472,4.891-1.408c1.172-0.938,1.957-2.376,2.35-4.305
	c0.389-1.93,0.586-4.122,0.586-6.576c0-3.601-0.355-6.315-1.053-8.143c-0.711-1.824-1.689-2.974-2.941-3.444
	c-1.252-0.468-2.504-0.704-3.756-0.704c-2.193,0-3.859,0.47-5.01,1.411c-1.148,0.94-1.906,2.375-2.273,4.305
	c-0.359,1.932-0.547,4.123-0.547,6.575c0,2.453,0.145,4.475,0.436,6.065c0.285,1.593,0.74,2.846,1.369,3.76
	c0.623,0.914,1.434,1.55,2.424,1.919C498.769,78.264,499.945,78.445,501.304,78.445"/>
<rect x="525.802" y="74.611" fill="#333333" width="11.742" height="11.509"/>
<path fill="#333333" d="M562.748,87.057c-3.285,0-6.119-0.367-8.492-1.096c-2.375-0.731-4.318-1.919-5.832-3.561
	c-1.514-1.645-2.637-3.797-3.367-6.461c-0.73-2.663-1.096-5.896-1.096-9.706c0-3.911,0.418-7.201,1.254-9.862
	c0.838-2.66,2.09-4.815,3.758-6.458c1.668-1.648,3.754-2.833,6.264-3.56c2.506-0.734,5.449-1.1,8.842-1.1
	c2.037,0,4.043,0.196,6.029,0.586c1.984,0.392,3.812,0.927,5.48,1.607l-1.957,8.376c-1.932-0.575-3.613-0.965-5.049-1.174
	c-1.436-0.21-2.857-0.315-4.268-0.315c-2.301,0-4.107,0.406-5.441,1.216c-1.328,0.808-2.242,2.138-2.738,3.992
	c-0.496,1.852-0.744,4.059-0.744,6.613c0,3.551,0.471,6.237,1.41,8.064c0.941,1.826,2.154,2.895,3.639,3.208
	c1.488,0.312,2.961,0.471,4.422,0.471c3.236,0,6.629-0.314,10.178-0.941l-0.781,8.532c-0.105,0.051-1.369,0.327-3.793,0.822
	C568.033,86.808,565.459,87.057,562.748,87.057"/>
<path fill="#333333" d="M581.615,86.116v-56.75h11.275v19.022c0.467-0.21,1.053-0.497,1.756-0.863
	c0.705-0.366,1.5-0.717,2.387-1.059c0.887-0.338,1.881-0.623,2.977-0.857c1.096-0.236,2.27-0.355,3.523-0.355
	c2.867,0,5.334,0.509,7.393,1.53c2.066,1.016,3.527,2.555,4.387,4.616c0.865,2.062,1.293,4.319,1.293,6.769v27.947h-11.273V60.596
	c0-3.544-1.617-5.319-4.854-5.319c-1.828,0-3.445,0.274-4.854,0.819c-1.408,0.551-2.32,0.956-2.736,1.215v28.806H581.615z"/>
</svg>
